# xmcd
#
# Track frame offsets: 
#        150
#        13351
#        25623
#        36423
#        48549
#        62432
#        73078
#        85107
#        99533
#        111970
#        127276
#        143326
#
# Disc length: 2088 seconds
#
# Revision: 0
# Processed by: cddbd v1.5.2PL0 Copyright (c) Steve Scherf et al.
# Submitted via: ExactAudioCopy v0.99pb5
#
DISCID=a608260c
DTITLE=Al Hirt - Al He's the King Hirt  FLAC
DYEAR=1900
DGENRE=
TTITLE0=I Love Paris
TTITLE1=One O'Clock Jump
TTITLE2=The Jitterbug Waltz
TTITLE3=Jazz Me Blues
TTITLE4=The Kings' Blues
TTITLE5=Cornet Chop Suey
TTITLE6=The Old Folks at Home
TTITLE7=Lover Come Back to Me
TTITLE8=Christopher Columbus
TTITLE9=Laura
TTITLE10=Down by the Riverside
TTITLE11=Three Little Words
EXTD=
EXTT0=
EXTT1=
EXTT2=
EXTT3=
EXTT4=
EXTT5=
EXTT6=
EXTT7=
EXTT8=
EXTT9=
EXTT10=
EXTT11=
PLAYORDER=
